<?xml version="1.0" encoding="UTF-8" standalone="no"?>
<svg
   xmlns:dc="http://purl.org/dc/elements/1.1/"
   xmlns:cc="http://creativecommons.org/ns#"
   xmlns:rdf="http://www.w3.org/1999/02/22-rdf-syntax-ns#"
   xmlns:svg="http://www.w3.org/2000/svg"
   xmlns="http://www.w3.org/2000/svg"
   xmlns:sodipodi="http://sodipodi.sourceforge.net/DTD/sodipodi-0.dtd"
   xmlns:inkscape="http://www.inkscape.org/namespaces/inkscape"
   width="183.79167mm"
   height="119.59592mm"
   viewBox="0 0 183.79167 119.59592"
   version="1.1"
   id="svg8"
   inkscape:version="1.0.1 (3bc2e813f5, 2020-09-07)"
   sodipodi:docname="logo.svg">
  <defs
     id="defs2">
    <clipPath
       clipPathUnits="userSpaceOnUse"
       id="clipPath32">
      <path
         d="M 0,697.394 H 850.394 V 0 H 0 Z"
         id="path30" />
    </clipPath>
  </defs>
  <sodipodi:namedview
     id="base"
     pagecolor="#ffffff"
     bordercolor="#666666"
     borderopacity="1.0"
     inkscape:pageopacity="0.0"
     inkscape:pageshadow="2"
     inkscape:zoom="0.98994949"
     inkscape:cx="124.04611"
     inkscape:cy="246.85858"
     inkscape:document-units="mm"
     inkscape:current-layer="layer1"
     inkscape:document-rotation="0"
     showgrid="false"
     inkscape:window-width="1366"
     inkscape:window-height="670"
     inkscape:window-x="0"
     inkscape:window-y="27"
     inkscape:window-maximized="1" />
  <metadata
     id="metadata5">
    <rdf:RDF>
      <cc:Work
         rdf:about="">
        <dc:format>image/svg+xml</dc:format>
        <dc:type
           rdf:resource="http://purl.org/dc/dcmitype/StillImage" />
        <dc:title />
      </cc:Work>
    </rdf:RDF>
  </metadata>
  <g
     inkscape:label="Capa 1"
     inkscape:groupmode="layer"
     id="layer1"
     transform="translate(-12.940101,-65.03728)">
    <g
       id="g28"
       clip-path="url(#clipPath32)"
       transform="matrix(0.25896061,0,0,-0.2232868,-5.2644946,202.74124)"
       style="stroke:#ffffff;stroke-opacity:1">
      <g
         id="g34"
         transform="translate(660.292,595.6051)"
         style="stroke:#ffffff;stroke-opacity:1">
        <path
           d="m 0,0 c -9.446,-3.169 -18.89,-6.35 -28.296,-9.637 -0.726,-0.254 -1.319,-1.235 -1.725,-2.009 -1.886,-3.593 -3.351,-7.452 -5.57,-10.817 -11.681,-17.72 -25.922,-33.367 -40.332,-48.835 -8.406,-9.024 -17.049,-17.845 -25.902,-26.43 -11.616,-11.266 -23.523,-22.233 -35.356,-33.273 -2.773,-2.587 -5.751,-4.954 -9.337,-8.023 0.639,2.207 0.974,3.52 1.406,4.801 0.271,0.808 0.578,1.641 1.053,2.337 6.34,9.29 12.504,18.712 19.136,27.79 6.896,9.44 14.362,18.472 19.41,29.131 0.396,0.834 0.59,1.763 0.877,2.648 -0.279,0.168 -0.558,0.337 -0.838,0.505 -17.103,-12.07 -32.618,-25.8 -45.025,-42.907 -13.458,-18.555 -18.756,-40.054 -23.251,-62.668 C -108.822,-124.115 -48.158,-67.65 1.909,-0.135 0.997,-0.059 0.439,0.147 0,0"
           style="fill:#112b00;fill-opacity:1;fill-rule:nonzero;stroke:#ffffff;stroke-width:1.8298;stroke-miterlimit:4;stroke-dasharray:none;stroke-opacity:1"
           id="path36" />
      </g>
      <g
         id="g38"
         transform="translate(585.6533,491.1686)"
         style="stroke:#ffffff;stroke-opacity:1">
        <path
           d="m 0,0 c -10.552,-9.237 -21,-18.592 -31.564,-27.814 -13.396,-11.694 -26.909,-23.252 -40.269,-34.985 -3.055,-2.683 -6.466,-4.979 -7.691,-9.482 -4.196,-15.406 -8.765,-30.709 -13.165,-46.059 -0.751,-2.618 -1.375,-5.273 -2.22,-8.537 1.269,0.632 1.877,0.834 2.368,1.194 9.673,7.1 19.402,14.127 28.968,21.37 5.521,4.181 11.312,8.21 16.024,13.21 7.629,8.096 14.492,16.915 21.636,25.466 5.425,6.494 11.493,12.59 16.021,19.665 9.8,15.313 17.3,31.831 22.761,49.216 0.802,2.55 1.268,5.207 2.098,8.692 -1.488,-0.9 -2.137,-1.189 -2.663,-1.625 C 8.186,6.895 4.025,3.524 0,0"
           style="fill:#008000;fill-opacity:1;fill-rule:nonzero;stroke:#ffffff;stroke-width:1.8298;stroke-miterlimit:4;stroke-dasharray:none;stroke-opacity:1"
           id="path40" />
      </g>
      <g
         id="g42"
         transform="translate(669.8203,615.7286)"
         style="stroke:#ffffff;stroke-opacity:1">
        <path
           d="m 0,0 c -2.752,-0.338 -5.478,-0.892 -8.232,-1.185 -16.83,-1.791 -33.18,-5.66 -48.822,-12.065 -13.102,-5.365 -25.632,-11.996 -36.92,-20.615 -9.276,-7.084 -18.683,-14.136 -27.083,-22.192 -10.189,-9.772 -19.424,-20.544 -28.97,-30.977 -2.197,-2.4 -3.974,-5.184 -5.944,-7.791 0.364,-0.353 0.728,-0.707 1.091,-1.061 3.017,2.077 6.09,4.075 9.038,6.243 18.472,13.583 36.702,27.507 55.467,40.672 8.281,5.811 17.392,10.605 26.566,14.923 6.716,3.161 14.152,4.793 21.267,7.105 8.458,2.748 16.93,5.455 25.367,8.262 3.643,1.212 8.081,1.726 10.625,4.16 4.148,3.968 7.037,9.25 10.867,14.543 C 2.269,0.022 1.118,0.137 0,0"
           style="fill:#112b00;fill-opacity:1;fill-rule:nonzero;stroke:#ffffff;stroke-width:1.8298;stroke-miterlimit:4;stroke-dasharray:none;stroke-opacity:1"
           id="path44" />
      </g>
      <g
         id="g46"
         transform="translate(577.5684,442.7282)"
         style="stroke:#ffffff;stroke-opacity:1">
        <path
           d="m 0,0 c -12.196,-14.373 -23.819,-28.072 -35.442,-41.77 0.193,-0.188 0.386,-0.376 0.579,-0.563 7.798,2.688 15.595,5.376 23.917,8.245 2.943,-20.467 0.251,-39.498 -4.063,-58.92 0.7,0.578 1.496,1.072 2.086,1.747 5.504,6.294 11.012,12.586 16.423,18.96 1.29,1.518 2.647,3.204 3.231,5.048 1.059,3.344 1.494,6.881 2.304,10.31 3.085,13.059 4.484,26.347 5.44,39.694 0.062,0.881 -0.074,2.067 -0.614,2.652 C 9.443,-9.812 4.908,-5.137 0,0"
           style="fill:#008000;fill-opacity:1;fill-rule:nonzero;stroke:#ffffff;stroke-width:1.8298;stroke-miterlimit:4;stroke-dasharray:none;stroke-opacity:1"
           id="path48" />
      </g>
      <g
         id="g50"
         transform="translate(579.542,364.7804)"
         style="stroke:#ffffff;stroke-opacity:1">
        <path
           d="m 0,0 c -4.44,-5.074 -8.966,-10.079 -13.263,-15.272 -2.708,-3.273 -5.914,-6.495 -7.448,-10.32 -8.06,-20.096 -15.659,-40.376 -23.419,-60.592 -0.769,-2.005 -1.541,-4.009 -2.311,-6.013 l 1.195,-0.804 c 3.546,3.773 7.681,7.156 10.504,11.409 4.49,6.764 8.241,14.037 12.062,21.223 9.549,17.957 16.886,36.845 23.201,56.144 0.505,1.541 0.661,3.196 1.126,5.543 C 0.63,0.511 0.264,0.301 0,0"
           style="fill:#112b00;fill-opacity:1;fill-rule:nonzero;stroke:#ffffff;stroke-width:1.8298;stroke-miterlimit:4;stroke-dasharray:none;stroke-opacity:1"
           id="path52" />
      </g>
      <g
         id="g54"
         transform="translate(456.2861,334.8947)"
         style="stroke:#ffffff;stroke-opacity:1">
        <path
           d="m 0,0 c -1.063,-1.106 -2.443,-2.389 -2.656,-3.75 -0.905,-5.782 -1.421,-11.625 -2.088,-17.445 -0.513,-4.466 -1.067,-8.886 -5.259,-11.751 -0.889,-0.608 -1.455,-1.685 -2.17,-2.546 0.172,-0.279 0.345,-0.558 0.517,-0.837 3.286,1.334 6.696,2.432 9.809,4.09 1.851,0.985 3.776,2.563 4.732,4.369 4.804,9.076 9.3,18.314 14.146,27.978 -1.317,0.6 -2.415,0.852 -3.189,1.494 C 8.634,5.919 4.139,4.304 0,0"
           style="fill:#112b00;fill-opacity:1;fill-rule:nonzero;stroke:#ffffff;stroke-opacity:1"
           id="path56" />
      </g>
      <g
         id="g58"
         transform="translate(472.0225,512.7281)"
         style="stroke:#ffffff;stroke-opacity:1">
        <path
           d="m 0,0 c 6.625,4.876 14.068,8.283 19.308,15.434 8.715,11.898 18.822,22.776 28.305,34.116 1.028,1.229 1.804,2.668 2.697,4.01 C 36.526,50.399 -0.222,11.023 -0.893,-0.018 -0.587,-0.018 -0.194,-0.143 0,0"
           style="fill:#008000;fill-opacity:1;fill-rule:nonzero;stroke:#ffffff;stroke-width:1.8298;stroke-miterlimit:4;stroke-dasharray:none;stroke-opacity:1"
           id="path60" />
      </g>
      <g
         id="g62"
         transform="translate(470.1299,468.9372)"
         style="stroke:#ffffff;stroke-opacity:1">
        <path
           d="m 0,0 c -1.229,-1.64 -2.961,-3.107 -3.595,-4.952 -2.054,-5.987 -3.727,-12.108 -5.509,-18.188 -2.356,-8.032 -4.857,-16.029 -6.907,-24.14 -0.646,-2.559 -0.78,-5.715 0.133,-8.108 2.063,-5.404 3.309,-5.404 6.948,-1.018 0.412,0.495 0.872,0.954 1.253,1.471 7.169,9.718 13.397,19.804 13.174,32.677 C 4.598,-16.545 3.854,-10.801 2.712,-5.136 2.346,-3.316 0.934,-1.706 0,0"
           style="fill:#112b00;fill-opacity:1;fill-rule:nonzero;stroke:#ffffff;stroke-opacity:1"
           id="path64" />
      </g>
      <g
         id="g66"
         transform="translate(503.2686,417.9997)"
         style="stroke:#ffffff;stroke-opacity:1">
        <path
           d="M 0,0 C -0.284,0.14 -0.567,0.28 -0.852,0.42 -1.384,0.126 -1.956,-0.114 -2.443,-0.471 -8.313,-4.776 -14.16,-9.11 -20.03,-13.415 c -17.903,-13.129 -35.826,-26.23 -53.709,-39.387 -2.071,-1.523 -3.121,-2.311 -4.136,-2.364 -1.013,0.053 -2.064,0.841 -4.134,2.364 -17.883,13.157 -35.807,26.258 -53.71,39.387 -5.869,4.305 -11.718,8.639 -17.587,12.944 -0.486,0.357 -1.059,0.597 -1.591,0.891 -0.284,-0.14 -0.568,-0.28 -0.852,-0.42 0.652,-2.542 1.23,-5.106 1.966,-7.624 4.568,-15.633 9.123,-31.27 13.837,-46.859 0.473,-1.566 1.717,-3.183 3.053,-4.16 17.654,-12.901 35.41,-25.662 53.091,-38.525 3.001,-2.184 4.397,-3.232 5.927,-3.134 1.531,-0.098 2.928,0.95 5.929,3.134 17.68,12.863 35.436,25.624 53.091,38.525 1.335,0.977 2.58,2.594 3.052,4.16 4.715,15.589 9.27,31.226 13.837,46.859 C -1.23,-5.106 -0.651,-2.542 0,0"
           style="fill:#008000;fill-opacity:1;fill-rule:nonzero;stroke:#ffffff;stroke-width:1.8298;stroke-miterlimit:4;stroke-dasharray:none;stroke-opacity:1"
           id="path68" />
      </g>
      <g
         id="g70"
         transform="translate(450.9297,326.9547)"
         style="stroke:#ffffff;stroke-opacity:1">
        <path
           d="M 0,0 C 0.134,1.083 -0.269,2.232 -0.424,3.35 -1.464,2.978 -2.639,2.802 -3.521,2.2 -9.46,-1.847 -15.314,-6.016 -21.24,-10.081 c -1.925,-1.32 -3.137,-2.008 -4.296,-2.086 -1.158,0.078 -2.37,0.766 -4.295,2.086 -5.925,4.065 -11.78,8.234 -17.718,12.281 -0.884,0.602 -2.058,0.778 -3.098,1.15 -0.155,-1.118 -0.558,-2.267 -0.424,-3.35 0.683,-5.54 1.006,-11.198 2.463,-16.54 0.906,-3.32 3.26,-6.447 5.571,-9.14 4.385,-5.11 9.229,-9.823 13.836,-14.745 1.139,-1.217 2.397,-1.756 3.665,-1.683 1.269,-0.073 2.527,0.466 3.666,1.683 4.607,4.922 9.451,9.635 13.836,14.745 2.311,2.693 4.666,5.82 5.571,9.14 1.458,5.342 1.779,11 2.463,16.54"
           style="fill:#44aa00;fill-opacity:1;fill-rule:nonzero;stroke:#ffffff;stroke-width:1.8298;stroke-miterlimit:4;stroke-dasharray:none;stroke-opacity:1"
           id="path72" />
      </g>
      <g
         id="g74"
         transform="translate(364.2471,418.2184)"
         style="stroke:#ffffff;stroke-opacity:1">
        <path
           d="m 0,0 c -4.495,22.613 -9.793,44.113 -23.251,62.667 -12.408,17.107 -27.923,30.838 -45.026,42.908 -0.279,-0.168 -0.558,-0.337 -0.838,-0.506 0.288,-0.884 0.482,-1.814 0.877,-2.648 5.048,-10.658 12.514,-19.69 19.41,-29.13 6.633,-9.079 12.796,-18.5 19.137,-27.79 0.475,-0.696 0.781,-1.529 1.053,-2.337 0.431,-1.281 0.767,-2.594 1.405,-4.802 -3.586,3.07 -6.564,5.437 -9.336,8.024 -11.833,11.04 -23.74,22.007 -35.356,33.272 -8.853,8.586 -17.496,17.406 -25.902,26.43 -14.41,15.469 -28.651,31.116 -40.332,48.835 -2.219,3.366 -3.684,7.225 -5.57,10.818 -0.406,0.774 -0.999,1.755 -1.726,2.009 -9.406,3.287 -18.849,6.467 -28.295,9.637 -0.44,0.147 -0.998,-0.059 -1.91,-0.135 C -125.592,109.736 -64.928,53.271 0,0"
           style="fill:#112b00;fill-opacity:1;fill-rule:nonzero;stroke:#ffffff;stroke-opacity:1"
           id="path76" />
      </g>
      <g
         id="g78"
         transform="translate(344.6602,418.8874)"
         style="stroke:#ffffff;stroke-opacity:1">
        <path
           d="m 0,0 c -1.227,4.503 -4.638,6.799 -7.692,9.482 -13.36,11.733 -26.873,23.291 -40.268,34.985 -10.564,9.222 -21.014,18.577 -31.565,27.814 -4.025,3.525 -8.185,6.895 -12.304,10.311 -0.526,0.436 -1.174,0.725 -2.663,1.625 0.83,-3.485 1.296,-6.141 2.097,-8.692 5.461,-17.384 12.962,-33.902 22.762,-49.215 4.529,-7.076 10.597,-13.171 16.022,-19.665 7.142,-8.551 14.007,-17.371 21.635,-25.466 4.712,-5 10.503,-9.03 16.024,-13.21 9.566,-7.243 19.295,-14.27 28.969,-21.37 0.49,-0.361 1.097,-0.562 2.367,-1.195 -0.844,3.264 -1.469,5.919 -2.22,8.537 C 8.764,-30.709 4.195,-15.405 0,0"
           style="fill:#008000;fill-opacity:1;fill-rule:nonzero;stroke:#ffffff;stroke-width:1.8298;stroke-miterlimit:4;stroke-dasharray:none;stroke-opacity:1"
           id="path80" />
      </g>
      <g
         id="g82"
         transform="translate(223.5098,588.7853)"
         style="stroke:#ffffff;stroke-opacity:1">
        <path
           d="m 0,0 c 7.115,-2.312 14.551,-3.944 21.267,-7.105 9.175,-4.318 18.285,-9.112 26.567,-14.922 18.764,-13.165 36.994,-27.09 55.466,-40.672 2.949,-2.169 6.022,-4.167 9.038,-6.243 0.364,0.354 0.728,0.707 1.092,1.061 -1.971,2.607 -3.748,5.39 -5.944,7.79 -9.546,10.433 -18.781,21.205 -28.97,30.977 -8.4,8.056 -17.808,15.109 -27.084,22.193 C 40.144,1.698 27.615,8.328 14.512,13.694 -1.13,20.099 -17.48,23.968 -34.309,25.759 c -2.754,0.293 -5.481,0.846 -8.232,1.184 -1.119,0.138 -2.269,0.023 -4.318,0.023 3.83,-5.294 6.72,-10.576 10.868,-14.544 2.543,-2.434 6.982,-2.948 10.624,-4.16 C -16.929,5.455 -8.458,2.749 0,0"
           style="fill:#112b00;fill-opacity:1;fill-rule:nonzero;stroke:#ffffff;stroke-opacity:1"
           id="path84" />
      </g>
      <g
         id="g86"
         transform="translate(286.1426,351.4669)"
         style="stroke:#ffffff;stroke-opacity:1">
        <path
           d="m 0,0 c 0.59,-0.675 1.386,-1.169 2.086,-1.747 -4.314,19.422 -7.006,38.453 -4.062,58.92 8.321,-2.869 16.119,-5.557 23.916,-8.245 0.194,0.188 0.387,0.376 0.58,0.563 -11.624,13.698 -23.247,27.397 -35.442,41.77 -4.909,-5.136 -9.444,-9.812 -13.861,-14.596 -0.541,-0.585 -0.677,-1.772 -0.614,-2.652 0.956,-13.347 2.355,-26.636 5.44,-39.695 0.81,-3.429 1.245,-6.965 2.303,-10.31 0.584,-1.844 1.942,-3.529 3.232,-5.048 C -11.011,12.586 -5.504,6.294 0,0"
           style="fill:#008000;fill-opacity:1;fill-rule:nonzero;stroke:#ffffff;stroke-width:1.8298;stroke-miterlimit:4;stroke-dasharray:none;stroke-opacity:1"
           id="path88" />
      </g>
      <g
         id="g90"
         transform="translate(291.9575,339.1886)"
         style="stroke:#ffffff;stroke-opacity:1">
        <path
           d="m 0,0 c -1.534,3.825 -4.74,7.046 -7.448,10.319 -4.297,5.194 -8.823,10.199 -13.263,15.273 -0.263,0.301 -0.63,0.511 -1.647,1.318 0.465,-2.348 0.621,-4.002 1.125,-5.543 C -14.917,2.068 -7.58,-16.82 1.968,-34.777 5.79,-41.963 9.542,-49.236 14.031,-56 c 2.823,-4.253 6.958,-7.636 10.504,-11.41 0.399,0.268 0.798,0.536 1.196,0.805 -0.771,2.004 -1.543,4.008 -2.312,6.013 C 15.66,-40.376 8.061,-20.096 0,0"
           style="fill:#112b00;fill-opacity:1;fill-rule:nonzero;stroke:#ffffff;stroke-opacity:1"
           id="path92" />
      </g>
      <g
         id="g94"
         transform="translate(404.5054,301.9484)"
         style="stroke:#ffffff;stroke-opacity:1">
        <path
           d="m 0,0 c -4.193,2.865 -4.747,7.285 -5.258,11.751 -0.668,5.82 -1.184,11.663 -2.089,17.445 -0.213,1.362 -1.592,2.644 -2.655,3.75 -4.14,4.304 -8.635,5.919 -13.843,1.602 -0.774,-0.642 -1.872,-0.893 -3.189,-1.493 4.846,-9.665 9.342,-18.903 14.146,-27.979 0.956,-1.806 2.882,-3.384 4.731,-4.369 3.114,-1.658 6.525,-2.756 9.81,-4.09 0.172,0.279 0.345,0.558 0.517,0.838 C 1.455,-1.685 0.888,-0.607 0,0"
           style="fill:#112b00;fill-opacity:1;fill-rule:nonzero;stroke:#ffffff;stroke-opacity:1"
           id="path96" />
      </g>
      <g
         id="g98"
         transform="translate(359.459,528.1622)"
         style="stroke:#ffffff;stroke-opacity:1">
        <path
           d="m 0,0 c 5.239,-7.151 12.682,-10.558 19.307,-15.434 0.195,-0.143 0.587,-0.018 0.893,-0.018 -0.671,11.041 -37.419,50.417 -51.203,53.578 0.893,-1.342 1.669,-2.781 2.697,-4.01 C -18.823,22.776 -8.717,11.898 0,0"
           style="fill:#008000;fill-opacity:1;fill-rule:nonzero;stroke:#ffffff;stroke-width:1.8298;stroke-miterlimit:4;stroke-dasharray:none;stroke-opacity:1"
           id="path100" />
      </g>
      <g
         id="g102"
         transform="translate(384.2529,463.9855)"
         style="stroke:#ffffff;stroke-opacity:1">
        <path
           d="M 0,0 C -0.633,1.844 -2.366,3.312 -3.595,4.952 -4.528,3.246 -5.939,1.636 -6.306,-0.185 -7.447,-5.849 -8.192,-11.593 -9.091,-17.307 -9.314,-30.18 -3.087,-40.266 4.082,-49.983 c 0.381,-0.517 0.842,-0.976 1.253,-1.472 3.64,-4.386 4.887,-4.386 6.949,1.018 0.913,2.394 0.779,5.549 0.133,8.109 -2.05,8.11 -4.551,16.107 -6.906,24.14 C 3.728,-12.108 2.055,-5.988 0,0"
           style="fill:#112b00;fill-opacity:1;fill-rule:nonzero;stroke:#ffffff;stroke-opacity:1"
           id="path104" />
      </g>
      <g
         id="g106"
         transform="translate(366.6963,517.7399)"
         style="stroke:#ffffff;stroke-opacity:1">
        <path
           d="m 0,0 c 0.287,-1.792 0.316,-2.671 0.573,-3.478 3.872,-12.16 7.704,-24.334 11.734,-36.442 0.755,-2.269 2.023,-4.538 3.603,-6.321 2.266,-2.56 3.634,-5.349 4.558,-8.612 4.267,-15.06 8.756,-30.057 13.021,-45.117 0.39,-1.375 0.278,-3.409 -0.497,-4.499 -2.276,-3.199 -1.731,-5.539 1.098,-7.979 7.269,-6.271 10.283,-15.456 15.613,-23.053 2.472,-3.522 5.603,-6.583 8.995,-10.487 3.392,3.904 6.524,6.965 8.994,10.487 5.331,7.597 8.345,16.782 15.615,23.053 2.828,2.44 3.373,4.78 1.097,7.979 -0.775,1.09 -0.886,3.124 -0.497,4.499 4.265,15.06 8.753,30.057 13.021,45.117 0.925,3.263 2.292,6.052 4.558,8.612 1.58,1.783 2.848,4.052 3.603,6.321 4.03,12.108 7.861,24.282 11.734,36.442 0.257,0.807 0.286,1.686 0.573,3.478 -4.812,-3.028 -8.92,-5.316 -12.669,-8.09 -2.044,-1.513 -3.97,-3.604 -5.096,-5.86 -3.683,-7.379 -6.902,-14.988 -10.443,-22.44 -2.228,-4.686 -5.334,-8.337 -10.952,-9.337 -3.127,-0.557 -6.041,-2.229 -9.15,-2.996 -2.961,-0.731 -4.019,-2.53 -4.635,-5.306 -1.844,-8.296 -3.805,-16.566 -5.753,-24.838 -1.948,8.272 -3.91,16.542 -5.753,24.838 -0.616,2.776 -1.674,4.575 -4.635,5.306 -3.109,0.767 -6.023,2.439 -9.151,2.996 -5.618,1 -8.723,4.651 -10.951,9.337 -3.542,7.452 -6.76,15.061 -10.443,22.44 -1.126,2.256 -3.052,4.347 -5.096,5.86 C 8.92,-5.316 4.812,-3.028 0,0"
           style="fill:#008000;fill-opacity:1;fill-rule:nonzero;stroke:#ffffff;stroke-width:1.8298;stroke-miterlimit:4;stroke-dasharray:none;stroke-opacity:1"
           id="path108" />
      </g>
      <g
         id="g110"
         transform="translate(70.8662,82.9757)"
         style="stroke:#ffffff;stroke-opacity:1">
        <path
           d="m 0,0 18.601,146.508 c 1.378,11.023 9.415,16.993 17.912,16.993 9.414,0 15.385,-3.444 19.978,-18.829 L 89.099,36.513 h 0.46 l 32.608,108.159 c 4.593,15.385 10.564,18.829 19.979,18.829 8.497,0 16.534,-5.97 17.911,-16.993 L 178.658,0 h -22.504 l -15.387,130.435 h -0.458 L 105.862,18.371 C 101.041,2.526 97.366,0 89.559,0 h -0.46 C 81.292,0 77.617,2.526 72.795,18.371 L 38.349,130.435 H 37.89 L 22.504,0 Z"
           style="fill:#112b00;fill-opacity:1;fill-rule:nonzero;stroke:#ffffff;stroke-opacity:1"
           id="path112" />
      </g>
      <g
         id="g114"
         transform="translate(258.4824,82.9757)"
         style="stroke:#ffffff;stroke-opacity:1">
        <path
           d="m 0,0 v 101.959 c 0,38.12 23.652,61.542 54.884,61.542 31.23,0 54.883,-23.422 54.883,-61.542 V 0 H 88.181 V 73.024 H 30.312 v 20.209 h 57.869 v 10.104 c 0,25.26 -13.549,39.957 -33.297,39.957 -19.75,0 -33.298,-14.697 -33.298,-39.957 V 0 Z"
           style="fill:#112b00;fill-opacity:1;fill-rule:nonzero;stroke:#ffffff;stroke-opacity:1"
           id="path116" />
      </g>
      <g
         id="g118"
         transform="translate(388.689,82.9757)"
         style="stroke:#ffffff;stroke-opacity:1">
        <path
           d="m 0,0 v 142.375 c 0,14.237 8.268,19.75 18.83,19.75 12.4,0 16.763,-7.35 24.571,-23.653 L 95.07,31.69 h 0.459 v 129.056 h 21.586 V 14.008 c 0,-8.727 -5.282,-15.386 -16.533,-15.386 -10.334,0 -15.387,3.215 -21.357,15.615 L 22.045,131.812 H 21.586 V 0 Z"
           style="fill:#112b00;fill-opacity:1;fill-rule:nonzero;stroke:#ffffff;stroke-opacity:1"
           id="path120" />
      </g>
      <g
         id="g122"
         transform="translate(517.9756,243.7218)"
         style="stroke:#ffffff;stroke-opacity:1">
        <path
           d="M 0,0 H 101.04 V -20.208 H 61.313 V -160.746 H 39.727 V -20.208 H 0 Z"
           style="fill:#112b00;fill-opacity:1;fill-rule:nonzero;stroke:#ffffff;stroke-opacity:1"
           id="path124" />
      </g>
      <path
         d="m 634.17,243.722 h 21.586 V 82.976 H 634.17 Z"
         style="fill:#112b00;fill-opacity:1;fill-rule:nonzero;stroke:#ffffff;stroke-opacity:1"
         id="path126" />
      <g
         id="g128"
         transform="translate(675.96,103.1837)"
         style="stroke:#ffffff;stroke-opacity:1">
        <path
           d="m 0,0 h 55.113 c 19.061,0 26.868,6.889 26.868,20.897 0,32.838 -80.833,31.46 -80.833,79.225 0,26.178 18.831,40.416 44.091,40.416 H 96.448 V 120.33 H 42.254 c -11.942,0 -19.52,-6.659 -19.52,-19.059 0,-29.624 80.833,-29.624 80.833,-78.537 0,-25.719 -16.074,-42.942 -44.549,-42.942 H 0 Z"
           style="fill:#112b00;fill-opacity:1;fill-rule:nonzero;stroke:#ffffff;stroke-opacity:1"
           id="path130" />
      </g>
    </g>
  </g>
</svg>
